<svg height="452pt" viewBox="-26 0 452 452.696" width="452pt" xmlns="http://www.w3.org/2000/svg"><path d="m231.539062 132.6875h-128v48h128zm-104 32c-4.414062 0-8-3.582031-8-8 0-4.414062 3.585938-8 8-8 4.417969 0 8 3.585938 8 8 0 4.425781-3.582031 8-8 8zm80 0c-4.414062 0-8-3.582031-8-8 0-4.414062 3.585938-8 8-8 4.417969 0 8 3.585938 8 8 0 4.425781-3.582031 8-8 8zm0 0"/><path d="m271.554688 116.6875-.015626-16h-208v16zm0 0"/><path d="m87.539062 132.6875h-16v8.207031c4.671876-3.535156 10.058594-6.183593 16-7.390625zm0 0"/><path d="m87.539062 195.214844v-45.046875c-9.285156 3.3125-16 12.113281-16 22.527343 0 10.417969 6.714844 19.207032 16 22.519532zm0 0"/><path d="m207.539062 273.863281c-11.78125 6.839844-25.421874 10.824219-40 10.824219-14.574218 0-28.214843-3.984375-40-10.824219v15.074219c5.007813 3.765625 18.136719 11.75 40 11.75 21.863282 0 34.992188-7.984375 40-11.75zm0 0"/><path d="m143.539062 353.375 12.6875-12.6875-12.6875-12.6875zm0 0"/><path d="m181.253906 315.671875c-4.265625.609375-8.769531 1.023437-13.714844 1.023437-4.941406 0-9.445312-.414062-13.710937-1.023437l13.710937 13.703125zm0 0"/><path d="m263.539062 140.894531v-8.207031h-16v.808594c5.945313 1.214844 11.328126 3.863281 16 7.398437zm0 0"/><path d="m146.847656 372.691406 20.6875-20.683594 20.6875 20.683594-20.6875 20.6875zm0 0"/><path d="m191.539062 328-12.6875 12.6875 12.6875 12.6875zm0 0"/><path d="m231.539062 204.6875v-8h-128v8c0 35.289062 28.714844 64 64 64 35.289063 0 64-28.710938 64-64zm0 0"/><path d="m298.683594 325.929688c-17.472656 23.65625-27.144532 52.527343-27.144532 81.992187v44.773437h48v-91.800781c0-14.75-8.285156-28.046875-20.855468-34.964843zm0 0"/><path d="m298.851562 220.6875-11.3125 11.3125v1.375l51.3125 51.3125h1.375l11.3125-11.3125v-1.375l-51.3125-51.3125zm0 0"/><path d="m15.539062 360.894531v91.800781h48v-44.773437c0-29.464844-9.671874-58.328125-27.144531-81.992187-12.566406 6.917968-20.855469 20.214843-20.855469 34.964843zm0 0"/><path d="m217.394531 301.535156c-2.261719 1.703125-5.582031 3.890625-9.855469 6.066406v68.40625l-40 40-40-40v-68.40625c-4.269531-2.175781-7.582031-4.363281-9.855468-6.066406l-65.609375 18.753906c17.738281 25.648438 27.464843 56.34375 27.464843 87.632813v44.773437h176v-44.773437c0-31.289063 9.730469-61.984375 27.457032-87.632813zm0 0"/><path d="m330.847656 228.691406 24.6875-24.6875 12.6875 12.691406-24.683594 24.683594zm0 0"/><path d="m372.226562 172.6875h-1.375l-11.3125 11.3125v1.375l27.3125 27.3125h1.375l11.3125-11.3125v-1.375zm0 0"/><path d="m39.539062 100.6875h7.191407c-3.71875-18.230469-19.871094-32-39.191407-32h-7.191406c3.710938 18.242188 19.871094 32 39.191406 32zm0 0"/><path d="m263.539062 172.6875c0-10.414062-6.710937-19.214844-16-22.527344v45.046875c9.289063-3.304687 16-12.101562 16-22.519531zm0 0"/><path d="m46.730469 116.6875h-7.191407c-19.320312 0-35.480468 13.769531-39.191406 32h7.191406c19.320313 0 35.480469-13.757812 39.191407-32zm0 0"/><path d="m316.226562 284.6875-28.6875-28.6875-38.0625 38.0625 44.625 12.753906zm0 0"/><path d="m266.125 84.6875 10.414062-26.039062-37-7.402344v-35.453125l-42.167968 14.054687-29.832032-29.847656-29.832031 29.847656-42.167969-14.054687v35.453125l-37 7.402344 10.417969 26.039062zm0 0"/></svg>